<?xml version="1.0" encoding="iso-8859-1"?>
<!-- Uploaded to: SVG Repo, www.svgrepo.com, Generator: SVG Repo Mixer Tools -->
<!DOCTYPE svg PUBLIC "-//W3C//DTD SVG 1.1//EN" "http://www.w3.org/Graphics/SVG/1.1/DTD/svg11.dtd">
<svg fill="#000000" version="1.1" id="Capa_1" xmlns="http://www.w3.org/2000/svg" xmlns:xlink="http://www.w3.org/1999/xlink" 
	 width="800px" height="800px" viewBox="0 0 31.2 31.201" xml:space="preserve"
	>
<g>
	<g>
		<path d="M31.2,3.836c0-0.978-0.792-1.77-1.771-1.77H1.771C0.792,2.066,0,2.858,0,3.836v23.527c0,0.979,0.792,1.771,1.771,1.771
			H29.43c0.979,0,1.771-0.793,1.771-1.771V3.836z M29.159,27.094H2.041V4.156h27.117L29.159,27.094L29.159,27.094z"/>
		<path d="M4.814,24.71h11.698c0.563,0,1.02-0.432,1.02-0.996c0-0.561-0.455-0.995-1.02-0.995H4.814
			c-0.563,0-1.019,0.436-1.019,0.995C3.795,24.28,4.251,24.71,4.814,24.71z"/>
		<path d="M26.165,22.719h-5.272c-0.562,0-1.02,0.436-1.02,0.995c0,0.564,0.456,0.996,1.02,0.996h5.272
			c0.563,0,1.019-0.432,1.019-0.996C27.184,23.155,26.73,22.719,26.165,22.719z"/>
		<path d="M4.814,21.311h11.698c0.563,0,1.02-0.435,1.02-0.996s-0.455-0.996-1.02-0.996H4.814c-0.563,0-1.019,0.435-1.019,0.996
			S4.251,21.311,4.814,21.311z"/>
		<path d="M26.165,19.319h-5.272c-0.562,0-1.02,0.435-1.02,0.996s0.456,0.996,1.02,0.996h5.272c0.563,0,1.019-0.435,1.019-0.996
			S26.73,19.319,26.165,19.319z"/>
		<path d="M21.969,6.906c-0.137-0.248-0.39-0.411-0.672-0.434c-0.283-0.021-0.558,0.101-0.732,0.324l-4.239,5.479l-3.69-3.576
			c-0.161-0.156-0.377-0.241-0.602-0.237c-0.224,0.004-0.438,0.098-0.593,0.26l-7.542,7.874h23.405L21.969,6.906z"/>
	</g>
</g>
</svg>